<?xml version="1.0" encoding="UTF-8"?>
<!-- Created with Inkscape (http://www.inkscape.org/) -->
<svg width="210mm" height="297mm" version="1.1" viewBox="0 0 210 297" xmlns="http://www.w3.org/2000/svg">
 <g stroke="#000">
  <path d="m39.995 52.586 44.439 37.032"/>
  <g fill-opacity="0">
   <path d="m22.219 122.21 28.515 61.844 39.625-64.436"/>
   <path d="m149.61 164.05-33.7-21.479 4.0736 43.328 27.404 18.146 20.738-12.961-33.329-13.332h43.698l-7.4065-22.59z"/>
   <rect x="37.403" y="16.294" width="51.475" height="17.776"/>
   <rect x="84.064" y="48.512" width="25.182" height="25.182"/>
   <circle cx="150.91" cy="41.661" r="14.628"/>
   <ellipse cx="160.91" cy="95.544" rx="27.219" ry="11.11"/>
   <path d="m51.105 220.34-10.018 22.283-23.668 6.0612-19.495-14.725-0.32136-12.212-0.32136-12.212 18.694-15.73 23.954 4.808 5.5879 10.863z"/>
   <path d="m98.136 241.45-14.083-12.6-16.266 9.6169 3.8706-18.496-16.462-9.2785 17.953-5.8959-0.19537-18.895 14.083 12.6 16.266-9.6169-3.8706 18.496 16.462 9.2785-17.953 5.8959z"/>
  </g>
 </g>
</svg>
